{"title":"Av.Mevsimi.2010.Blu-Ray.720p.AC3.x264-MuraTurk","uid":7099051,"size":4692885746,"categoryP":"video","categoryS":"hd___movies","magnet":"?xt=urn:btih:3b48773caa17f7ca5ab5f73d0ad9a1256f6f3f95&amp;dn=Av.Mevsimi.2010.Blu-Ray.720p.AC3.x264-MuraTurk&amp;tr=udp%3A%2F%2Ftracker.openbittorrent.com%3A80&amp;tr=udp%3A%2F%2Fopen.demonii.com%3A1337&amp;tr=udp%3A%2F%2Ftracker.coppersurfer.tk%3A6969&amp;tr=udp%3A%2F%2Fexodus.desync.com%3A6969","seeders":4,"leechers":0,"uploader":"mfccorrea","files":4,"time":1331645317,"description":"It's CSI: Istanbul in this dark thriller featuring Sener Sen, Cem Yilmaz, and Okan Yalabik as a team of Turkish homicide detectives investigating the murder of a young woman whose severed arm is found in a swamp. This pivotal case is the first for rookie detective Hasan, the brightest and most promising student in his class; the last for Chief Ferman, whose pending retirement looms; and a career-defining challenge for the passionate and impulse-driven Idris. The suspect list includes a line-up of close family members and local ne'er-do-wells, plus one wealthy overlord who strikes fear and dread at the mere mention of his name. And as the three detectives winnow the list of suspects, their revelations pose more questions than they answer.\n\nWritten and directed by Yavuz Turgul, Av Mevsimi is a masterpiece of cinema noir. With its impeccably-crafted screenplay, and a constellation of perfectly-cast characters, every minute of its nearly two-and-a-half-hour runtime is an exercise in mindful pacing and plot development that weaves a richly sinister tapestry of mystery and intrigue.\n\n   General\n      Complete name : Av.Mevsimi.2010.Blu-Ray.720p.AC3.x264-MuraTurk.mkv\n      Format : Matroska\n      File size : 4.37 GiB\n      Duration : 2h 24mn\n      Overall bit rate : 4 326 Kbps\n      Encoded date : UTC 2012-01-18 22:39:37\n      Writing application : mkvmerge v4.0.0 \n      Writing library : libebml v1.0.0 + libmatroska v1.0.0\n   Video #1\n      ID : 1\n      Format : AVC\n      Format/Info : Advanced Video Codec\n      Format profile : &lt;a class=&quot;__cf_email__&quot; href=&quot;/cdn-cgi/l/email-protection&quot; data-cfemail=&quot;145c7d737c5458203a25&quot;&gt;[email&amp;#160;protected]&lt;/a&gt;&lt;script cf-hash='f9e31' type=&quot;text/javascript&quot;&gt;\n/* &lt;![CDATA[ */!function(){try{var t=&quot;currentScript&quot;in document?document.currentScript:function(){for(var t=document.getElementsByTagName(&quot;script&quot;),e=t.length;e--;)if(t[e].getAttribute(&quot;cf-hash&quot;))return t[e]}();if(t&amp;&amp;t.previousSibling){var e,r,n,i,c=t.previousSibling,a=c.getAttribute(&quot;data-cfemail&quot;);if(a){for(e=&quot;&quot;,r=parseInt(a.substr(0,2),16),n=2;a.length-n;n+=2)i=parseInt(a.substr(n,2),16)^r,e+=String.fromCharCode(i);e=document.createTextNode(e),c.parentNode.replaceChild(e,c)}}}catch(u){}}();/* ]]&gt; */&lt;/script&gt;\n      Format settings, CABAC : Yes\n      Format settings, ReFrames : 9 frames\n      Muxing mode : Container profile=&lt;a class=&quot;__cf_email__&quot; href=&quot;/cdn-cgi/l/email-protection&quot; data-cfemail=&quot;cb9ea5a0a5a4bca58bffe5fa&quot;&gt;[email&amp;#160;protected]&lt;/a&gt;&lt;script cf-hash='f9e31' type=&quot;text/javascript&quot;&gt;\n/* &lt;![CDATA[ */!function(){try{var t=&quot;currentScript&quot;in document?document.currentScript:function(){for(var t=document.getElementsByTagName(&quot;script&quot;),e=t.length;e--;)if(t[e].getAttribute(&quot;cf-hash&quot;))return t[e]}();if(t&amp;&amp;t.previousSibling){var e,r,n,i,c=t.previousSibling,a=c.getAttribute(&quot;data-cfemail&quot;);if(a){for(e=&quot;&quot;,r=parseInt(a.substr(0,2),16),n=2;a.length-n;n+=2)i=parseInt(a.substr(n,2),16)^r,e+=String.fromCharCode(i);e=document.createTextNode(e),c.parentNode.replaceChild(e,c)}}}catch(u){}}();/* ]]&gt; */&lt;/script&gt;\n      Codec ID : V_MPEG4/ISO/AVC\n      Duration : 2h 24mn\n      Bit rate : 3 856 Kbps\n      Width : 1 280 pixels\n      Height : 720 pixels\n      Display aspect ratio : 16:9\n      Frame rate : 25.000 fps\n      Resolution : 24 bits\n      Colorimetry : 4:2:0\n      Scan type : Progressive\n      Bits/(Pixel*Frame) : 0.167\n      Stream size : 3.90 GiB (89%)     \n   Audio #2\n      ID : 2\n      Format : AC-3\n      Format/Info : Audio Coding 3\n      Codec ID : A_AC3\n      Duration : 2h 24mn\n      Bit rate mode : Constant\n      Bit rate : 384 Kbps\n      Channel(s) : 6 channels\n      Channel positions : Front: L C R, Surround: L R, LFE\n      Sampling rate : 48.0 KHz\n      Video delay : 16ms\n      Stream size : 397 MiB (9%)\n      Language : Turkish \n &lt;a href=&quot;\nhttp://www.imdb.com/title/tt1668191/&quot; rel=&quot;nofollow&quot; target=&quot;_NEW&quot;&gt;\nhttp://www.imdb.com/title/tt1668191/&lt;/a&gt;\n\nAudio: Turkish\nSubtitles: English, Spanish and Portuguese (srt)\n","torrent":{"xt":"urn:btih:3b48773caa17f7ca5ab5f73d0ad9a1256f6f3f95","amp;dn":"Av.Mevsimi.2010.Blu-Ray.720p.AC3.x264-MuraTurk","amp;tr":["udp%3A%2F%2Ftracker.openbittorrent.com%3A80","udp%3A%2F%2Fopen.demonii.com%3A1337","udp%3A%2F%2Ftracker.coppersurfer.tk%3A6969","udp%3A%2F%2Fexodus.desync.com%3A6969"],"infoHash":"3b48773caa17f7ca5ab5f73d0ad9a1256f6f3f95","infoHashBuffer":{"type":"Buffer","data":[59,72,119,60,170,23,247,202,90,181,247,61,10,217,161,37,111,111,63,149]},"announce":[],"urlList":[]}}